#N canvas 922 328 756 510 10;
#X declare -lib mrpeach;
#X obj 132 -49 vsl 15 128 0 1 0 0 empty empty empty 0 -9 0 10 -262144
-1 -1 0 1;
#X floatatom 132 87 5 0 0 0 - - -;
#X obj 132 -143 knob 32 32 0 1 0 0 empty empty empty 0 -8 0 8 -262144
-1 -1 0 1;
#X floatatom 132 -103 5 0 0 0 - - -;
#X obj 172 -143 knob 32 32 0 1 0 0 empty empty empty 0 -8 0 8 -262144
-1 -1 0 1;
#X floatatom 172 -103 5 0 0 0 - - -;
#X obj 212 -143 knob 32 32 0 1 0 0 empty empty empty 0 -8 0 8 -262144
-1 -1 0 1;
#X floatatom 212 -103 5 0 0 0 - - -;
#X obj 252 -143 knob 32 32 0 1 0 0 empty empty empty 0 -8 0 8 -262144
-1 -1 0 1;
#X floatatom 252 -103 5 0 0 0 - - -;
#X obj 292 -143 knob 32 32 0 1 0 0 empty empty empty 0 -8 0 8 -262144
-1 -1 0 1;
#X floatatom 292 -103 5 0 0 0 - - -;
#X obj 332 -143 knob 32 32 0 1 0 0 empty empty empty 0 -8 0 8 -262144
-1 -1 0 1;
#X floatatom 332 -103 5 0 0 0 - - -;
#X obj 372 -143 knob 32 32 0 1 0 0 empty empty empty 0 -8 0 8 -262144
-1 -1 0 1;
#X floatatom 372 -103 5 0 0 0 - - -;
#X obj 412 -143 knob 32 32 0 1 0 0 empty empty empty 0 -8 0 8 -262144
-1 -1 0 1;
#X floatatom 412 -103 5 0 0 0 - - -;
#X obj 452 -143 knob 32 32 0 1 0 0 empty empty empty 0 -8 0 8 -262144
-1 -1 0 1;
#X floatatom 452 -103 5 0 0 0 - - -;
#X obj 172 -49 vsl 15 128 0 1 0 0 empty empty empty 0 -9 0 10 -262144
-1 -1 0 1;
#X floatatom 172 87 5 0 0 0 - - -;
#X obj 212 -49 vsl 15 128 0 1 0 0 empty empty empty 0 -9 0 10 -262144
-1 -1 0 1;
#X floatatom 212 87 5 0 0 0 - - -;
#X obj 252 -49 vsl 15 128 0 1 0 0 empty empty empty 0 -9 0 10 -262144
-1 -1 0 1;
#X floatatom 252 87 5 0 0 0 - - -;
#X obj 292 -49 vsl 15 128 0 1 0 0 empty empty empty 0 -9 0 10 -262144
-1 -1 0 1;
#X floatatom 292 87 5 0 0 0 - - -;
#X obj 332 -49 vsl 15 128 0 1 0 0 empty empty empty 0 -9 0 10 -262144
-1 -1 0 1;
#X floatatom 332 87 5 0 0 0 - - -;
#X obj 372 -49 vsl 15 128 0 1 0 0 empty empty empty 0 -9 0 10 -262144
-1 -1 0 1;
#X floatatom 372 87 5 0 0 0 - - -;
#X obj 412 -49 vsl 15 128 0 1 0 0 empty empty empty 0 -9 0 10 -262144
-1 -1 0 1;
#X floatatom 412 87 5 0 0 0 - - -;
#X obj 452 -49 vsl 15 128 0 1 0 0 empty empty empty 0 -9 0 10 -262144
-1 -1 0 1;
#X floatatom 452 87 5 0 0 0 - - -;
#X obj 497 -145 tgl 15 0 empty empty empty 17 7 0 10 -262144 -1 -1
0 1;
#X obj 497 -125 tgl 15 0 empty empty empty 17 7 0 10 -262144 -1 -1
0 1;
#X obj 517 -145 bng 15 250 50 0 empty empty empty 17 7 0 10 -262144
-1 -1;
#X obj 517 -125 bng 15 250 50 0 empty empty empty 17 7 0 10 -262144
-1 -1;
#X obj 537 -145 tgl 15 0 empty empty empty 17 7 0 10 -262144 -1 -1
0 1;
#X obj 537 -125 tgl 15 0 empty empty empty 17 7 0 10 -262144 -1 -1
0 1;
#X obj 557 -145 tgl 15 0 empty empty empty 17 7 0 10 -262144 -1 -1
0 1;
#X obj 557 -125 tgl 15 0 empty empty empty 17 7 0 10 -262144 -1 -1
0 1;
#X obj 119 233 import mrpeach;
#X obj 253 261 udpsend;
#X msg 306 232 connect localhost 23415;
#X obj 253 232 packOSC;
#X msg 237 164 send /allo 1;
#X msg 464 232 disconnect;
#X connect 0 0 1 0;
#X connect 2 0 3 0;
#X connect 4 0 5 0;
#X connect 6 0 7 0;
#X connect 8 0 9 0;
#X connect 10 0 11 0;
#X connect 12 0 13 0;
#X connect 14 0 15 0;
#X connect 16 0 17 0;
#X connect 18 0 19 0;
#X connect 20 0 21 0;
#X connect 22 0 23 0;
#X connect 24 0 25 0;
#X connect 26 0 27 0;
#X connect 28 0 29 0;
#X connect 30 0 31 0;
#X connect 32 0 33 0;
#X connect 34 0 35 0;
#X connect 46 0 45 0;
#X connect 47 0 45 0;
#X connect 48 0 47 0;
#X connect 49 0 45 0;
